# xmcd
#
# Track frame offsets:
#	150
#	17914
#	34029
#	48846
#	66310
#	83048
#	99458
#	116214
#	132121
#	148587
#	163391
#	180888
#	197366
#	211616
#	226254
#	243311
#	259335
#	273314
#	285999
#
# Disc length: 4048 seconds
#
# Revision: 4
# Processed by: cddbd v1.5.1PL0 Copyright (c) Steve Scherf et al.
# Submitted via: audiograbber 1.83.01
#
DISCID=030fce13
DTITLE=2004-09 Country Radio - 2004-09 Country Radio
DYEAR=2004
DGENRE=Country
TTITLE0=Kenny Chesney - The Woman With You
TTITLE1=Toby Keith - Stays In Mexico
TTITLE2=Jimmy Buffet Feat. Martina McBride - - Trip Around The Sun
TTITLE3=Joe Diffie - If I Could Only Bring You Back
TTITLE4=Jay Teter - Football, Beer and You
TTITLE5=Reba McEntire - He Gets That From Me
TTITLE6=Billy Dean - Let Them Be Little
TTITLE7=Carolina Rain - I Ain't Scared
TTITLE8=Christy Sutherland - Freedom
TTITLE9=George Canyon - I'll Never Do Better Than You
TTITLE10=Trent Willmon - Dixie Rose Deluxe's Honky Tonk, Feed Store, Gun Shop, 
TTITLE10=Used Car, Beer, Bait, BBQ, Ba
TTITLE11=Rachel Proctor - Where I Belong
TTITLE12=Brad Cotter - Can't Tell Me Nothin'
TTITLE13=Wayne Warner - Turbo Twang
TTITLE14=Los Lonely Boys - Heaven
TTITLE15=Glenn Cummings - Big
TTITLE16=Catherine Britt - The Upside Of Being Down
TTITLE17=Memarie - I Know You By Heart
TTITLE18=Jack Kapanka - America Moves By Truck
EXTD=
EXTT0=
EXTT1=
EXTT2=
EXTT3=
EXTT4=
EXTT5=
EXTT6=
EXTT7=
EXTT8=
EXTT9=
EXTT10=
EXTT11=
EXTT12=
EXTT13=
EXTT14=
EXTT15=
EXTT16=
EXTT17=
EXTT18=
PLAYORDER=
